G04 FlatCAM practice: DIP and connectors*
%FSLAX24Y24*%
%MOMM*%
%ADD10C,0.450*%
%ADD11O,2.200X1.800*%
%ADD12R,2.200X1.800*%
%ADD13C,2.600*%
%ADD14C,5.000*%
%LPD*%
G01*
D10*
X080000Y100000D02*
X130000Y100000D01*
X130000Y100000D01*
X180000Y100000D01*
X080000Y150000D02*
X130000Y150000D01*
X130000Y150800D01*
X180000Y150800D01*
X080000Y200000D02*
X130000Y200000D01*
X130000Y201600D01*
X180000Y201600D01*
X080000Y250000D02*
X130000Y250000D01*
X130000Y252400D01*
X180000Y252400D01*
X400000Y100000D02*
X328100Y100000D01*
X328100Y100000D01*
X256200Y100000D01*
X400000Y150000D02*
X328100Y150000D01*
X328100Y150800D01*
X256200Y150800D01*
X400000Y200000D02*
X328100Y200000D01*
X328100Y201600D01*
X256200Y201600D01*
X400000Y250000D02*
X328100Y250000D01*
X328100Y252400D01*
X256200Y252400D01*
D11*
X180000Y125400D03*
X180000Y150800D03*
X180000Y176200D03*
X180000Y201600D03*
X180000Y227000D03*
X180000Y252400D03*
X256200Y100000D03*
X256200Y125400D03*
X256200Y150800D03*
X256200Y176200D03*
X256200Y201600D03*
X256200Y227000D03*
X256200Y252400D03*
D12*
X180000Y100000D03*
D13*
X080000Y100000D03*
X080000Y150000D03*
X080000Y200000D03*
X080000Y250000D03*
X400000Y100000D03*
X400000Y150000D03*
X400000Y200000D03*
X400000Y250000D03*
D14*
X040000Y040000D03*
X460000Y310000D03*
M02*
