M48
;FlatCAM practice - explicit decimal millimetres
METRIC,LZ
T01C0.800
T02C1.000
T03C3.200
%
T01
X18.000Y10.000
X18.000Y12.540
X18.000Y15.080
X18.000Y17.620
X18.000Y20.160
X18.000Y22.700
X18.000Y25.240
X25.620Y10.000
X25.620Y12.540
X25.620Y15.080
X25.620Y17.620
X25.620Y20.160
X25.620Y22.700
X25.620Y25.240
T02
X8.000Y10.000
X8.000Y15.000
X8.000Y20.000
X8.000Y25.000
X40.000Y10.000
X40.000Y15.000
X40.000Y20.000
X40.000Y25.000
T03
X4.000Y4.000
X46.000Y31.000
M30
